<?xml version="1.0" standalone="no"?>
<!DOCTYPE svg PUBLIC "-//W3C//DTD SVG 20010904//EN"
 "http://www.w3.org/TR/2001/REC-SVG-20010904/DTD/svg10.dtd">
<svg version="1.0" xmlns="http://www.w3.org/2000/svg"
 width="700.000000pt" height="700.000000pt" viewBox="0 0 700.000000 700.000000"
 preserveAspectRatio="xMidYMid meet">
<metadata>
Created by potrace 1.14, written by Peter Selinger 2001-2017
</metadata>
<g transform="translate(0.000000,700.000000) scale(0.100000,-0.100000)"
fill="#000000" stroke="none">
<path d="M3368 5575 c-2 -1 -23 -5 -48 -8 -25 -4 -54 -8 -65 -10 -11 -3 -38
-8 -60 -12 -22 -5 -42 -9 -45 -10 -43 -9 -195 -67 -260 -100 -288 -145 -508
-366 -669 -675 -28 -53 -98 -234 -108 -275 -2 -11 -6 -31 -9 -44 -3 -14 -7
-27 -9 -31 -2 -4 -7 -29 -11 -56 -3 -27 -8 -51 -9 -54 -10 -17 -18 -179 -20
-415 -2 -148 -4 -275 -4 -281 -1 -8 -12 -10 -33 -5 -109 24 -269 -62 -322
-173 -48 -101 -59 -271 -26 -396 58 -220 220 -396 393 -425 24 -4 37 -11 37
-21 0 -31 61 -199 106 -291 68 -139 160 -268 272 -381 24 -24 42 -45 40 -47
-2 -1 -39 -22 -83 -45 -149 -79 -313 -212 -376 -306 -146 -214 -147 -451 -4
-664 42 -62 152 -172 217 -216 24 -16 45 -31 48 -34 28 -29 227 -122 352 -165
89 -31 238 -70 303 -80 20 -3 66 -11 115 -20 27 -5 93 -12 180 -21 69 -6 386
-6 460 1 453 41 803 163 1054 365 30 25 103 103 140 150 118 153 158 365 101
533 -63 186 -243 367 -474 477 l-69 33 60 62 c137 141 264 357 328 556 19 57
35 105 36 107 0 1 12 5 24 7 91 17 228 95 297 168 63 67 96 123 133 229 51
148 46 298 -13 421 -65 134 -158 200 -284 200 l-73 1 0 45 c0 195 -8 590 -13
607 -3 12 -8 38 -11 58 -20 128 -63 258 -128 394 -42 86 -136 243 -158 262 -3
3 -18 21 -34 40 -236 289 -571 479 -941 535 -41 7 -332 15 -337 10z m-215
-1230 c172 -238 270 -342 452 -480 241 -182 539 -311 830 -360 17 -3 44 -7 60
-10 17 -3 71 -7 120 -11 50 -3 95 -7 100 -9 12 -3 12 -614 1 -675 -3 -19 -9
-48 -12 -65 -78 -434 -381 -789 -799 -937 -136 -49 -219 -62 -385 -63 -175 0
-234 6 -337 35 -443 124 -783 476 -876 910 -10 47 -13 130 -11 305 3 349 5
378 29 550 16 116 70 313 122 450 59 156 169 366 242 464 l25 33 22 -63 c94
-280 297 -543 556 -722 122 -85 283 -158 433 -197 54 -15 66 -16 51 -4 -11 7
-23 14 -28 14 -15 0 -113 64 -193 125 -79 62 -221 204 -253 254 -9 14 -19 28
-23 31 -11 9 -75 112 -110 180 -59 111 -125 295 -142 393 -6 35 -14 45 126
-148z m-1104 -1001 c3 -2 5 -110 5 -239 1 -163 -2 -235 -10 -235 -23 0 -85 76
-105 129 -27 73 -49 175 -43 209 2 15 6 41 9 59 8 46 67 93 109 86 17 -3 33
-7 35 -9z m3094 -37 c18 -27 22 -44 21 -107 -1 -41 -3 -82 -6 -90 -2 -8 -8
-31 -12 -50 -5 -19 -19 -50 -31 -70 -32 -50 -112 -136 -120 -129 -8 9 -8 456
0 469 10 17 68 27 98 17 15 -5 37 -23 50 -40z m-2370 -1673 c21 -14 94 -93
163 -177 69 -84 133 -161 142 -172 9 -11 111 -135 225 -275 115 -140 212 -256
216 -258 4 -1 164 194 356 434 357 447 374 464 439 464 14 0 28 -5 31 -10 4
-6 36 -24 72 -40 97 -44 224 -132 281 -195 71 -77 106 -153 110 -238 4 -62 1
-75 -31 -140 -61 -123 -169 -218 -345 -307 -151 -76 -388 -149 -541 -166 -25
-3 -57 -7 -71 -9 -123 -22 -589 -22 -651 0 -8 2 -32 6 -54 9 -208 23 -505 126
-665 232 -275 181 -333 402 -163 612 30 36 65 68 170 152 6 5 53 32 105 59
110 60 153 65 211 25z m527 -134 c85 -12 404 -5 453 10 22 6 41 10 43 7 4 -4
-288 -376 -296 -376 -3 0 -44 48 -92 107 -48 59 -99 121 -113 137 -121 142
-119 139 -82 130 12 -3 51 -9 87 -15z"/>
<path d="M2781 3374 c-142 -61 -153 -278 -19 -354 34 -19 56 -24 105 -23 82 2
135 30 173 90 35 55 32 61 -45 98 -65 30 -85 56 -85 111 0 81 -51 112 -129 78z"/>
<path d="M4026 3360 c-105 -67 -122 -233 -32 -314 59 -53 167 -67 239 -30 41
22 85 69 93 101 8 30 -21 59 -69 70 -35 7 -77 56 -78 91 -3 112 -58 142 -153
82z"/>
<path d="M3115 2935 c-65 -31 -85 -50 -120 -110 -24 -40 -30 -63 -32 -120 -2
-60 2 -79 28 -133 25 -51 46 -76 125 -142 101 -85 136 -101 266 -121 111 -17
210 -3 313 47 153 73 223 154 232 268 5 57 2 72 -21 120 -35 71 -104 132 -170
150 -28 8 -96 17 -151 20 -55 3 -111 7 -125 10 -14 2 -43 7 -65 10 -22 3 -64
10 -94 16 -83 16 -131 12 -186 -15z m460 -151 c133 -8 150 -14 171 -58 21 -43
14 -71 -32 -125 l-37 -43 -161 4 c-142 4 -168 7 -220 29 -33 13 -68 36 -79 51
-38 51 -19 125 38 149 20 8 107 6 320 -7z"/>
<path d="M3448 2064 c-31 -16 -58 -61 -58 -97 0 -37 41 -90 78 -101 47 -13 92
3 119 43 27 40 29 71 8 111 -26 50 -97 71 -147 44z"/>
</g>
</svg>
